<svg width="16" height="18" viewBox="0 0 16 18" fill="none" xmlns="http://www.w3.org/2000/svg">
<path d="M3.83333 12.3333H9.66667V14H3.83333V12.3333ZM3.83333 8.99999H12.1667V10.6667H3.83333V8.99999ZM3.83333 5.66666H12.1667V7.33332H3.83333V5.66666ZM13.8333 2.33332H10.35C10 1.36666 9.08333 0.666656 8 0.666656C6.91667 0.666656 6 1.36666 5.65 2.33332H2.16667C2.05 2.33332 1.94167 2.34166 1.83333 2.36666C1.50833 2.43332 1.21667 2.59999 0.991667 2.82499C0.841667 2.97499 0.716667 3.15832 0.633333 3.35832C0.55 3.54999 0.5 3.76666 0.5 3.99999V15.6667C0.5 15.8917 0.55 16.1167 0.633333 16.3167C0.716667 16.5167 0.841667 16.6917 0.991667 16.85C1.21667 17.075 1.50833 17.2417 1.83333 17.3083C1.94167 17.325 2.05 17.3333 2.16667 17.3333H13.8333C14.75 17.3333 15.5 16.5833 15.5 15.6667V3.99999C15.5 3.08332 14.75 2.33332 13.8333 2.33332ZM8 2.12499C8.34167 2.12499 8.625 2.40832 8.625 2.74999C8.625 3.09166 8.34167 3.37499 8 3.37499C7.65833 3.37499 7.375 3.09166 7.375 2.74999C7.375 2.40832 7.65833 2.12499 8 2.12499ZM13.8333 15.6667H2.16667V3.99999H13.8333V15.6667Z" fill="white"/>
</svg>
