<svg width="120" height="19" viewBox="0 0 120 19" fill="none" xmlns="http://www.w3.org/2000/svg">
<defs>
<linearGradient id="paint0_linear_4533_24670" x1="67.006" y1="16.2396" x2="71.431" y2="-4.2093" gradientUnits="userSpaceOnUse">
<stop stop-color="#0335B4"/>
<stop offset="0.9375" stop-color="#5320C9"/>
</linearGradient>
<linearGradient id="paint1_linear_4533_24670" x1="67.006" y1="16.2396" x2="71.431" y2="-4.2093" gradientUnits="userSpaceOnUse">
<stop stop-color="#0335B4"/>
<stop offset="0.9375" stop-color="#5320C9"/>
</linearGradient>
<linearGradient id="paint2_linear_4533_24670" x1="67.006" y1="16.2396" x2="71.431" y2="-4.2093" gradientUnits="userSpaceOnUse">
<stop stop-color="#0335B4"/>
<stop offset="0.9375" stop-color="#5320C9"/>
</linearGradient>
<linearGradient id="paint3_linear_4533_24670" x1="67.006" y1="16.2396" x2="71.431" y2="-4.2093" gradientUnits="userSpaceOnUse">
<stop stop-color="#0335B4"/>
<stop offset="0.9375" stop-color="#5320C9"/>
</linearGradient>
</defs>
<rect x="65.0114" width="54.9886" height="18.2082" fill="white"/>
<path d="M74.7796 6.60995C74.7438 6.16165 74.5756 5.81197 74.2753 5.56092C73.9794 5.30986 73.5288 5.18434 72.9236 5.18434C72.5381 5.18434 72.222 5.23141 71.9755 5.32555C71.7334 5.41522 71.5541 5.5385 71.4375 5.69541C71.3209 5.85232 71.2604 6.03164 71.2559 6.23338C71.247 6.39925 71.2761 6.54943 71.3433 6.68393C71.4151 6.81393 71.5272 6.93273 71.6796 7.04033C71.832 7.14344 72.027 7.23758 72.2646 7.32276C72.5022 7.40794 72.7847 7.48415 73.1119 7.5514L74.2417 7.79348C75.0038 7.95487 75.6561 8.16782 76.1985 8.43232C76.741 8.69682 77.1848 9.0084 77.53 9.36704C77.8752 9.7212 78.1285 10.1202 78.2899 10.564C78.4557 11.0078 78.5409 11.492 78.5454 12.0165C78.5409 12.9221 78.3145 13.6887 77.8662 14.3163C77.4179 14.944 76.7768 15.4214 75.943 15.7487C75.1136 16.076 74.1161 16.2396 72.9505 16.2396C71.7536 16.2396 70.709 16.0625 69.8169 15.7083C68.9292 15.3542 68.2388 14.8095 67.7457 14.0743C67.257 13.3346 67.0105 12.3886 67.006 11.2365H70.5566C70.579 11.6579 70.6843 12.0121 70.8726 12.299C71.0609 12.5859 71.3254 12.8033 71.6661 12.9513C72.0113 13.0992 72.4215 13.1732 72.8967 13.1732C73.2957 13.1732 73.6297 13.1239 73.8987 13.0252C74.1677 12.9266 74.3717 12.7899 74.5106 12.615C74.6496 12.4402 74.7213 12.2407 74.7258 12.0165C74.7213 11.8058 74.6519 11.622 74.5174 11.4651C74.3874 11.3037 74.1722 11.1603 73.8718 11.0347C73.5714 10.9047 73.1657 10.7837 72.6546 10.6716L71.2828 10.3757C70.0634 10.1112 69.1018 9.66965 68.398 9.05098C67.6986 8.42784 67.3512 7.5783 67.3557 6.50236C67.3512 5.62816 67.5843 4.8638 68.055 4.20927C68.5302 3.55026 69.187 3.03695 70.0253 2.66934C70.8681 2.30173 71.8342 2.11792 72.9236 2.11792C74.0354 2.11792 74.9971 2.30397 75.8085 2.67606C76.6199 3.04816 77.2453 3.57268 77.6847 4.24962C78.1285 4.92208 78.3526 5.70886 78.3571 6.60995H74.7796Z" fill="url(#paint0_linear_4533_24670)"/>
<path d="M83.0089 16.0782H78.9741L83.5199 2.30621H88.6306L93.1765 16.0782H89.1417L86.1291 6.09889H86.0215L83.0089 16.0782ZM82.2557 10.6447H89.841V13.4422H82.2557V10.6447Z" fill="url(#paint1_linear_4533_24670)"/>
<path d="M96.2715 2.30621L99.0958 12.0165H99.2034L102.028 2.30621H106.251L101.705 16.0782H96.5942L92.0484 2.30621H96.2715Z" fill="url(#paint2_linear_4533_24670)"/>
<path d="M107.577 16.0782V2.30621H117.503V5.31883H111.316V7.68589H116.992V10.6985H111.316V13.0656H117.476V16.0782H107.577Z" fill="url(#paint3_linear_4533_24670)"/>
<path d="M7.77364 6.60995C7.73778 6.16165 7.56966 5.81197 7.2693 5.56092C6.97341 5.30986 6.52287 5.18434 5.91765 5.18434C5.53211 5.18434 5.21605 5.23141 4.96948 5.32555C4.7274 5.41522 4.54807 5.5385 4.43151 5.69541C4.31495 5.85232 4.25443 6.03164 4.24995 6.23338C4.24098 6.39925 4.27012 6.54943 4.33737 6.68393C4.4091 6.81393 4.52117 6.93273 4.6736 7.04033C4.82602 7.14344 5.02104 7.23758 5.25864 7.32276C5.49624 7.40794 5.77868 7.48415 6.10594 7.5514L7.23567 7.79348C7.9978 7.95487 8.65008 8.16782 9.19253 8.43232C9.73498 8.69682 10.1788 9.0084 10.524 9.36704C10.8692 9.7212 11.1225 10.1202 11.2839 10.564C11.4498 11.0078 11.5349 11.492 11.5394 12.0165C11.5349 12.9221 11.3085 13.6887 10.8602 14.3163C10.4119 14.944 9.77085 15.4214 8.937 15.7487C8.10763 16.076 7.11015 16.2396 5.94455 16.2396C4.74757 16.2396 3.70302 16.0625 2.81088 15.7083C1.92324 15.3542 1.23284 14.8095 0.739706 14.0743C0.251052 13.3346 0.00448306 12.3886 0 11.2365H3.55059C3.57301 11.6579 3.67836 12.0121 3.86665 12.299C4.05494 12.5859 4.31944 12.8033 4.66015 12.9513C5.00535 13.0992 5.41555 13.1732 5.89075 13.1732C6.28975 13.1732 6.62373 13.1239 6.89272 13.0252C7.1617 12.9266 7.36568 12.7899 7.50466 12.615C7.64363 12.4402 7.71536 12.2407 7.71985 12.0165C7.71536 11.8058 7.64587 11.622 7.51138 11.4651C7.38137 11.3037 7.16619 11.1603 6.86582 11.0347C6.56545 10.9047 6.15974 10.7837 5.64867 10.6716L4.27685 10.3757C3.05745 10.1112 2.09583 9.66965 1.39199 9.05098C0.692634 8.42784 0.345196 7.5783 0.349679 6.50236C0.345196 5.62816 0.578316 4.8638 1.04904 4.20927C1.52424 3.55026 2.18101 3.03695 3.01935 2.66934C3.86216 2.30173 4.82827 2.11792 5.91765 2.11792C7.02945 2.11792 7.99107 2.30397 8.80251 2.67606C9.61394 3.04816 10.2393 3.57268 10.6787 4.24962C11.1225 4.92208 11.3466 5.70886 11.3511 6.60995H7.77364Z" fill="white"/>
<path d="M21.1119 2.30621H24.8508V11.1289C24.8508 12.1779 24.5997 13.0857 24.0976 13.8524C23.6 14.6145 22.9051 15.204 22.013 15.6209C21.1209 16.0334 20.0853 16.2396 18.9062 16.2396C17.7182 16.2396 16.6781 16.0334 15.786 15.6209C14.8939 15.204 14.199 14.6145 13.7014 13.8524C13.2082 13.0857 12.9617 12.1779 12.9617 11.1289V2.30621H16.7006V10.8061C16.7006 11.232 16.7947 11.6131 16.983 11.9493C17.1713 12.281 17.4313 12.5411 17.763 12.7293C18.0993 12.9176 18.4803 13.0118 18.9062 13.0118C19.3366 13.0118 19.7177 12.9176 20.0494 12.7293C20.3812 12.5411 20.6412 12.281 20.8295 11.9493C21.0177 11.6131 21.1119 11.232 21.1119 10.8061V2.30621Z" fill="white"/>
<path d="M26.6277 16.0782V2.30621H32.5723C33.5944 2.30621 34.4888 2.50795 35.2554 2.91142C36.022 3.3149 36.6183 3.88201 37.0442 4.61275C37.4701 5.34349 37.683 6.19751 37.683 7.17482C37.683 8.1611 37.4633 9.01512 37.024 9.73689C36.5891 10.4587 35.9772 11.0146 35.1882 11.4046C34.4036 11.7946 33.4868 11.9896 32.4378 11.9896H28.8872V9.08461H31.6847C32.124 9.08461 32.4983 9.0084 32.8077 8.85597C33.1215 8.69906 33.3613 8.47715 33.5272 8.19024C33.6975 7.90332 33.7827 7.56485 33.7827 7.17482C33.7827 6.78031 33.6975 6.44408 33.5272 6.16613C33.3613 5.8837 33.1215 5.66851 32.8077 5.52057C32.4983 5.36814 32.124 5.29193 31.6847 5.29193H30.3666V16.0782H26.6277Z" fill="white"/>
<path d="M39.0548 16.0782V2.30621H48.9803V5.31883H42.7937V7.68589H48.4693V10.6985H42.7937V13.0656H48.9534V16.0782H39.0548Z" fill="white"/>
<path d="M50.8346 16.0782V2.30621H56.7792C57.8013 2.30621 58.6957 2.49226 59.4623 2.86435C60.2289 3.23645 60.8252 3.77217 61.251 4.47153C61.6769 5.17089 61.8899 6.00922 61.8899 6.98653C61.8899 7.97281 61.6702 8.80442 61.2309 9.48136C60.796 10.1583 60.1841 10.6694 59.3951 11.0146C58.6105 11.3598 57.6937 11.5324 56.6447 11.5324H53.0941V8.62733H55.8915C56.3309 8.62733 56.7052 8.57354 57.0145 8.46594C57.3284 8.35387 57.5682 8.17679 57.7341 7.9347C57.9044 7.69262 57.9896 7.37656 57.9896 6.98653C57.9896 6.59202 57.9044 6.27148 57.7341 6.02491C57.5682 5.77386 57.3284 5.59006 57.0145 5.4735C56.7052 5.35245 56.3309 5.29193 55.8915 5.29193H54.5735V16.0782H50.8346ZM58.9042 9.75707L62.3472 16.0782H58.2855L54.9232 9.75707H58.9042Z" fill="white"/>

</svg>
