<svg width="18" height="14" viewBox="0 0 18 14" fill="none" xmlns="http://www.w3.org/2000/svg">
<path d="M14 5.83333C14 6.39167 14 6.94167 14 7.5C15 7.5 16.3 7.5 17.3333 7.5C17.3333 6.94167 17.3333 6.39167 17.3333 5.83333C16.3 5.83333 15 5.83333 14 5.83333Z" fill="#141519"/>
<path d="M12.3333 11.3417C13.1333 11.9333 14.175 12.7167 15 13.3333C15.3333 12.8917 15.6666 12.4417 16 12C15.175 11.3833 14.1333 10.6 13.3333 10C13 10.45 12.6666 10.9 12.3333 11.3417Z" fill="#141519"/>
<path d="M16 1.33333C15.6666 0.891667 15.3333 0.441667 15 0C14.175 0.616667 13.1333 1.4 12.3333 2C12.6666 2.44167 13 2.89167 13.3333 3.33333C14.1333 2.73333 15.175 1.95833 16 1.33333Z" fill="#141519"/>
<path d="M2.33329 4.16667C1.41663 4.16667 0.666626 4.91667 0.666626 5.83333V7.5C0.666626 8.41667 1.41663 9.16667 2.33329 9.16667H3.16663V13.3333H4.83329V9.16667H5.66663L9.83329 11.6667V1.66667L5.66663 4.16667H2.33329ZM6.52496 5.59167L8.16663 4.60833V8.725L6.52496 7.74167L6.12496 7.5H2.33329V5.83333H6.12496L6.52496 5.59167Z" fill="#141519"/>
<path d="M11.9166 6.66667C11.9166 5.55833 11.4333 4.55833 10.6666 3.875V9.45C11.4333 8.775 11.9166 7.775 11.9166 6.66667Z" fill="#141519"/>
</svg>
