<svg width="24" height="16" viewBox="0 0 24 16" fill="none" xmlns="http://www.w3.org/2000/svg">
<g clip-path="url(#clip0_1500_11080)">
<path d="M0 0H24V16H0V0Z" fill="#D80027"/>
<path d="M10.6106 11.1908L10.1568 10.461L9.31935 10.6668L9.87607 10.0072L9.42227 9.27737L10.2223 9.60017L10.7743 8.94052L10.7135 9.80134L11.5135 10.1241L10.6761 10.33L10.6106 11.1908ZM13.5954 3.83643L13.1229 4.5569L13.6655 5.2259L12.8375 5.00134L12.365 5.72649L12.3182 4.86567L11.4901 4.64111L12.2948 4.33234L12.248 3.47152L12.7907 4.14052L13.5954 3.83643ZM11.0503 1.18848L10.9568 2.04462L11.7427 2.40017L10.9006 2.57795L10.8071 3.43409L10.3767 2.68555L9.53923 2.86333L10.1147 2.22239L9.68426 1.47854L10.4702 1.82941L11.0503 1.18848ZM13.6983 7.56976L13.0012 8.0797L13.2726 8.89842L12.5755 8.39315L11.8784 8.90777L12.1404 8.08438L11.4433 7.5838L12.3041 7.57912L12.5661 6.75573L12.8375 7.57444L13.6983 7.56976ZM5.38016 2.16625L6.18952 4.66918H8.81876L6.69478 6.20836L7.50414 8.71128L5.38016 7.16742L3.25151 8.71128L4.06554 6.20836L1.93689 4.66918H4.57081L5.38016 2.16625Z" fill="#FFDA44"/>
</g>
<defs>
<clipPath id="clip0_1500_11080">
<rect width="24" height="16" fill="white"/>
</clipPath>
</defs>
</svg>
