<svg width="24" height="16" viewBox="0 0 24 16" fill="none" xmlns="http://www.w3.org/2000/svg">
<g clip-path="url(#clip0_1500_11101)">
<path d="M0 0H24V16H0V0Z" fill="white"/>
<path fill-rule="evenodd" clip-rule="evenodd" d="M3.66418 4.84668L5.88298 1.51848L6.46688 1.90774L4.24808 5.23594L3.66418 4.84668ZM4.49624 5.40138L6.71503 2.07318L7.29893 2.46244L5.08013 5.79064L4.49624 5.40138ZM5.32829 5.95608L7.54708 2.62787L8.13098 3.01714L5.91218 6.34534L5.32829 5.95608ZM15.8676 12.9823L18.0864 9.65407L18.6703 10.0433L16.4515 13.3715L15.8676 12.9823ZM16.6996 13.537L18.9184 10.2088L19.5023 10.598L17.2835 13.9262L16.6996 13.537ZM20.3344 11.1527L18.1156 14.4809L17.5317 14.0917L19.7505 10.7635L20.3344 11.1527Z" fill="black"/>
<path fill-rule="evenodd" clip-rule="evenodd" d="M19.3255 13.2352L16.552 11.3862L16.8764 10.8997L19.6499 12.7486L19.3255 13.2352Z" fill="white"/>
<path d="M15.3275 10.2183C16.5529 8.38016 16.0562 5.89668 14.2181 4.67128C12.38 3.44587 9.89648 3.94257 8.67107 5.78068C7.44566 7.6188 7.94236 10.1023 9.78047 11.3277C11.6186 12.5531 14.1021 12.0564 15.3275 10.2183Z" fill="#CA163A"/>
<path d="M8.67107 5.78068C8.05868 6.69927 8.30719 7.9418 9.22577 8.55418C10.1444 9.16657 11.3869 8.91806 11.9993 7.99948C12.6117 7.0809 13.8542 6.83239 14.7728 7.44478C15.6914 8.05716 15.9399 9.29969 15.3275 10.2183C14.1027 12.0554 11.6176 12.5525 9.78047 11.3277C7.94331 10.1029 7.44629 7.61785 8.67107 5.78068V5.78068Z" fill="#0E4896"/>
<path fill-rule="evenodd" clip-rule="evenodd" d="M18.1156 1.51807L20.3344 4.84628L19.7505 5.23554L17.5317 1.90733L18.1156 1.51807ZM17.2835 2.07278L19.5023 5.40097L18.9185 5.79024L16.6996 2.46205L17.2835 2.07278ZM16.4515 2.62748L18.6703 5.95567L18.0864 6.34493L15.8676 3.01674L16.4515 2.62748ZM5.91213 9.65367L8.13093 12.9819L7.54704 13.3711L5.32824 10.0429L5.91213 9.65367ZM5.08008 10.2084L7.29888 13.5366L6.71499 13.9258L4.49619 10.5977L5.08008 10.2084ZM4.24808 10.7631L6.46688 14.0913L5.88298 14.4806L3.66418 11.1523L4.24808 10.7631Z" fill="black"/>
<path d="M5.48267 12.3441L6.31472 11.7894L5.48267 12.3441ZM16.7142 4.8564L17.6861 4.20851L16.7142 4.8564ZM18.5181 3.65381L19.3502 3.09912Z" fill="black"/>
<path fill-rule="evenodd" clip-rule="evenodd" d="M19.5123 3.34205L18.6803 3.89674L18.3559 3.41016L19.1879 2.85547L19.5123 3.34205ZM17.8482 4.45144L16.8764 5.09933L16.552 4.61275L17.5238 3.96486L17.8482 4.45144ZM6.47686 12.0324L5.64481 12.587L5.32043 12.1005L6.15249 11.5458L6.47686 12.0324Z" fill="white"/>
</g>
<defs>
<clipPath id="clip0_1500_11101">
<rect width="24" height="16" fill="white"/>
</clipPath>
</defs>
</svg>
