<svg width="144" height="44" viewBox="0 0 144 44" fill="none" xmlns="http://www.w3.org/2000/svg">
<path d="M31.4021 12.3781V16.6723L27.7789 14.5252L22.3269 11.2942L16.8749 14.5252V20.9872L18.5001 21.9506L21.2355 23.5713L22.1216 24.0978V28.392L18.5001 26.2449L13.2534 23.1343V12.3781L22.3269 7L31.4021 12.3781Z" fill="#2960EC"/>
<path d="M26.2461 20.602V31.1156L25.9946 31.2636L22.3731 33.4107L17.1709 36.4937L8.0957 31.1156V20.3577L12.8086 17.5654V21.8597L11.7189 22.5048V28.9685L17.1709 32.1995L18.7499 31.2636L22.3731 29.1165L22.6229 28.9685V22.7474L26.2461 20.602Z" fill="#2960EC"/>
<path d="M36.6487 20.3581V31.116L27.5735 36.4941L22.7699 33.6468L26.3931 31.4997L27.5735 32.1999L33.0254 28.9689V22.5052L31.402 21.5435L28.0285 19.5443L27.7788 19.3963L27.5735 19.2759L25.9945 20.2101L22.373 22.3572L22.1215 22.5052V23.5736L21.6767 23.3086L18.5 21.4265V20.3581L18.7498 20.2101L22.373 18.0647L27.5735 14.9817L27.7788 15.1021L31.402 17.2492L36.6487 20.3581Z" fill="#2960EC"/>
<path d="M68.619 28.481H65.2701L63.9295 20.5865L61.7856 26.2713L60.9532 28.481H59.6659L58.8335 26.2713L56.6895 20.5865L55.349 28.481H52L54.2698 15.145H57.5849L57.609 15.1937L60.3095 22.3582V22.363V22.3582L63.01 15.1937L63.0294 15.145H66.3493L68.619 28.481Z" fill="#141519"/>
<path d="M69.858 19.0286C69.9015 16.6924 72.1519 14.7942 74.9782 14.7942C76.4011 14.7942 77.6884 15.2712 78.6127 16.0499L77.2528 18.5565C76.6721 18.1282 75.4186 17.3835 74.1313 17.8848C74.1313 17.8848 73.3812 18.2401 73.5167 19.0189C73.6522 19.8025 75.2638 20.2065 75.7477 20.3136C75.7477 20.3136 79.7839 21.1069 79.0918 24.8157C78.3949 28.5244 74.2378 30.408 69.4272 27.3174L70.8694 24.548C70.8694 24.548 72.6068 25.9887 73.7974 25.8913C74.9879 25.7988 75.6025 25.5019 75.6025 24.5869C75.6025 24.5869 75.6848 23.8082 74.5088 23.375C73.3328 22.9564 69.7951 22.6839 69.858 19.0286Z" fill="#141519"/>
<path d="M87.4496 14.6184C83.3698 14.6184 80.0596 17.8113 80.0596 21.7439C80.0596 25.6863 83.365 28.8743 87.4496 28.8743C91.5342 28.8743 94.8396 25.6863 94.8396 21.7439C94.8444 17.8113 91.5342 14.6184 87.4496 14.6184ZM87.4496 25.5014C85.3057 25.5014 83.5634 23.8222 83.5634 21.7488C83.5634 19.6803 85.3057 18.0011 87.4496 18.0011C89.5983 18.0011 91.3357 19.6803 91.3357 21.7488C91.3357 23.8222 89.5983 25.5014 87.4496 25.5014Z" fill="#141519"/>
<path d="M95.5025 28.9192L92.1535 29.3815L86.4961 23.3803L89.8451 22.9131L95.5025 28.9192Z" fill="#141519"/>
<path d="M139.911 15.145H136.542V28.8753H139.911V15.145Z" fill="#141519"/>
<path d="M107.766 15.145V24.2855C107.766 24.7966 107.684 25.2882 107.529 25.7408C107.05 27.1864 105.869 28.3155 104.403 28.7195C104.02 28.8217 103.618 28.8801 103.202 28.8801H100.899C100.482 28.8801 100.076 28.8217 99.6985 28.7195C98.2224 28.3155 97.0512 27.1864 96.5721 25.7408C96.4172 25.2882 96.335 24.7966 96.335 24.2855V15.145H99.7033V23.3705C99.7033 24.6798 100.758 25.7408 102.055 25.7408C103.357 25.7408 104.412 24.6798 104.412 23.3705V15.145H107.766Z" fill="#141519"/>
<path d="M135.714 28.8793H131.596L127.531 22.2551H130.928L135.714 28.8793Z" fill="#141519"/>
<path d="M130.435 15.145H124.593V28.8801H127.962V22.9179H130.435C132.569 22.9179 134.297 21.1803 134.297 19.0339C134.297 16.8875 132.569 15.145 130.435 15.145ZM129.046 21.1706H127.957V17.822H129.046C129.98 17.822 130.739 18.5715 130.739 19.4963C130.739 20.421 129.985 21.1706 129.046 21.1706Z" fill="#141519"/>
<path d="M144 15.145H136.542V18.002H144V15.145Z" fill="#141519"/>
<path d="M144 20.5862H136.542V23.4432H144V20.5862Z" fill="#141519"/>
<path d="M144 26.0227H136.542V28.8797H144V26.0227Z" fill="#141519"/>
<path d="M109.426 28.8787L114.169 14.6228H118.225L122.929 28.8787H119.052L118.142 25.7881H113.704L112.858 28.8787H109.426ZM115.868 18.6577L114.435 23.2766H117.383L115.95 18.6577H115.868Z" fill="#141519"/>
</svg>
