<svg width="88" height="102" viewBox="0 0 88 102" fill="none" xmlns="http://www.w3.org/2000/svg">
<path fill-rule="evenodd" clip-rule="evenodd" d="M67.6225 14.0002L76.9244 81.8429L77.7601 88.6492C78.0293 90.8419 76.4701 92.8377 74.2774 93.1069L15.7172 100.297C13.5245 100.566 11.5287 99.0071 11.2595 96.8145L2.24374 23.3869C2.10913 22.2906 2.88876 21.2927 3.98509 21.1581C3.99202 21.1573 3.99895 21.1565 4.00588 21.1557L8.86425 20.6107M12.7928 20.17L17.3798 19.6555L12.7928 20.17Z" fill="white"/>
<path d="M68.8609 13.8304C68.7671 13.1464 68.1367 12.668 67.4527 12.7618C66.7688 12.8556 66.2903 13.486 66.3841 14.17L68.8609 13.8304ZM76.9244 81.8429L78.1651 81.6906C78.1644 81.6848 78.1636 81.6789 78.1628 81.6731L76.9244 81.8429ZM77.7601 88.6492L79.0008 88.4969L77.7601 88.6492ZM74.2774 93.1069L74.4297 94.3476L74.2774 93.1069ZM15.7172 100.297L15.8695 101.538L15.7172 100.297ZM11.2595 96.8145L12.5002 96.6621L11.2595 96.8145ZM2.24374 23.3869L1.00306 23.5393L2.24374 23.3869ZM3.98509 21.1581L3.83276 19.9174L3.98509 21.1581ZM4.00588 21.1557L4.14522 22.3979L4.00588 21.1557ZM9.00359 21.8529C9.68965 21.7759 10.1834 21.1574 10.1065 20.4713C10.0295 19.7853 9.41096 19.2915 8.72491 19.3685L9.00359 21.8529ZM12.6534 18.9278C11.9674 19.0048 11.4736 19.6233 11.5506 20.3094C11.6275 20.9954 12.2461 21.4892 12.9321 21.4122L12.6534 18.9278ZM17.5192 20.8977C18.2052 20.8207 18.699 20.2022 18.622 19.5161C18.5451 18.8301 17.9265 18.3363 17.2405 18.4133L17.5192 20.8977ZM66.3841 14.17L75.686 82.0127L78.1628 81.6731L68.8609 13.8304L66.3841 14.17ZM75.6837 81.9953L76.5194 88.8016L79.0008 88.4969L78.1651 81.6906L75.6837 81.9953ZM76.5194 88.8016C76.7045 90.309 75.6325 91.6811 74.1251 91.8662L74.4297 94.3476C77.3076 93.9942 79.3541 91.3748 79.0008 88.4969L76.5194 88.8016ZM74.1251 91.8662L15.5648 99.0565L15.8695 101.538L74.4297 94.3476L74.1251 91.8662ZM15.5648 99.0565C14.0574 99.2416 12.6853 98.1696 12.5002 96.6621L10.0188 96.9668C10.3722 99.8447 12.9916 101.891 15.8695 101.538L15.5648 99.0565ZM12.5002 96.6621L3.48442 23.2346L1.00306 23.5393L10.0188 96.9668L12.5002 96.6621ZM3.48442 23.2346C3.43394 22.8235 3.7263 22.4493 4.13743 22.3988L3.83276 19.9174C2.05121 20.1362 0.78431 21.7577 1.00306 23.5393L3.48442 23.2346ZM4.13743 22.3988C4.14003 22.3985 4.14262 22.3982 4.14522 22.3979L3.86654 19.9135C3.85527 19.9147 3.84401 19.9161 3.83276 19.9174L4.13743 22.3988ZM4.14522 22.3979L9.00359 21.8529L8.72491 19.3685L3.86654 19.9135L4.14522 22.3979ZM12.9321 21.4122L17.5192 20.8977L17.2405 18.4133L12.6534 18.9278L12.9321 21.4122Z" fill="#838799"/>
<path fill-rule="evenodd" clip-rule="evenodd" d="M65.0899 18.2691L73.5095 79.7528L74.2668 85.921C74.5108 87.9081 73.1168 89.7145 71.1532 89.9556L18.7112 96.3946C16.7476 96.6357 14.958 95.2203 14.7141 93.2332L6.56405 26.8567C6.42944 25.7603 7.20907 24.7625 8.3054 24.6278L14.793 23.8313" fill="#E8F0FE"/>
<path d="M24.6221 1.25H70.1788C70.9079 1.25 71.6071 1.5395 72.1228 2.05485L85.566 15.4898C86.0821 16.0056 86.3721 16.7053 86.3721 17.4349V80C86.3721 81.5188 85.1409 82.75 83.6221 82.75H24.6221C23.1033 82.75 21.8721 81.5188 21.8721 80V4C21.8721 2.48122 23.1033 1.25 24.6221 1.25Z" fill="white" stroke="#838799" stroke-width="2.5"/>
<path d="M70.6221 2.40283V14C70.6221 15.6569 71.9652 17 73.6221 17H81.5557" stroke="#838799" stroke-width="2.5" stroke-linecap="round" stroke-linejoin="round"/>
<path d="M31.9502 17H57.9502M31.9502 29H74.9502M31.9502 42H74.9502M31.9502 55H74.9502M31.9502 68H57.9502" stroke="#75A4FE" stroke-width="2.5" stroke-linecap="round" stroke-linejoin="round"/>
</svg>
