<svg width="40" height="40" viewBox="0 0 40 40" fill="none" xmlns="http://www.w3.org/2000/svg">
<rect width="40" height="40" rx="20" fill="#2960EC"/>
<path d="M26.3498 13.563V16.408L23.9494 14.9855L20.3374 12.845L16.7255 14.9855V19.2666L17.8021 19.9049L19.6144 20.9786L20.2014 21.3274V24.1724L17.8021 22.7499L14.3262 20.6891V13.563L20.3374 10L26.3498 13.563Z" fill="white"/>
<path d="M22.934 19.0115V25.9769L22.7674 26.0749L20.3681 27.4974L16.9216 29.5399L10.9092 25.9769V18.8497L14.0315 16.9998V19.8447L13.3096 20.2721V24.5544L16.9216 26.695L17.9676 26.0749L20.3681 24.6524L20.5335 24.5544V20.4329L22.934 19.0115Z" fill="white"/>
<path d="M29.8254 18.8497V25.977L23.813 29.54L20.6306 27.6536L23.031 26.2311L23.813 26.695L27.425 24.5545V20.2722L26.3494 19.6351L24.1145 18.3106L23.949 18.2126L23.813 18.1328L22.7669 18.7517L20.3676 20.1742L20.201 20.2722V20.98L19.9064 20.8045L17.8018 19.5576V18.8497L17.9672 18.7517L20.3676 17.3304L23.813 15.2878L23.949 15.3676L26.3494 16.7901L29.8254 18.8497Z" fill="white"/>
</svg>
