<svg width="40" height="40" viewBox="0 0 40 40" fill="none" xmlns="http://www.w3.org/2000/svg">
<defs>
<linearGradient id="paint0_linear_1983_11973" x1="20" y1="0" x2="20" y2="40" gradientUnits="userSpaceOnUse">
<stop offset="0.135417" stop-color="#11338C"/>
<stop offset="0.787451" stop-color="#3768A4"/>
</linearGradient>
</defs>
<rect width="40" height="40" rx="20" fill="url(#paint0_linear_1983_11973)"/>
<path d="M28.0368 12.0011V15.3338V25.3363L19.1467 30.3353L10.2568 25.3363V28.6709L19.1467 33.6702L30.9995 27.0025V13.6672L28.0368 12.0011Z" fill="white"/>
<path d="M19.1475 7.00016V10.3351L28.0376 15.334V12.0012L19.1475 7.00016Z" fill="#E0E0E0"/>
<path d="M25.3879 17.5825V18.8312L24.5946 17.6957L23.4005 15.9868L22.2067 16.1568V18.0357L22.5623 18.5447L23.1614 19.402L23.3556 19.6802V20.929L22.5623 19.7934L21.4131 18.149V15.0213L23.4005 14.7381L25.3879 17.5825Z" fill="white"/>
<path d="M24.259 19.2457V22.3024L24.204 22.3104L23.4107 22.4233L22.2716 22.5857L20.2842 19.7413V16.614L21.3162 16.4668V17.7156L21.0778 17.7496V19.6284L22.2716 21.337L22.6174 21.2881L23.4107 21.1749L23.4657 21.1669V19.3586L24.259 19.2457Z" fill="white"/>
<path d="M26.5373 20.6432V23.7708L24.5499 24.0537L23.4976 22.5481L24.2913 22.4349L24.5499 22.8053L25.744 22.6353V20.7564L25.3884 20.2475L24.6494 19.1901L24.5948 19.1116L24.5499 19.0476L24.2041 19.0968L23.4108 19.2096L23.3562 19.2176V19.5283L23.2585 19.3883L22.5625 18.3928V18.0821L22.6175 18.0741L23.4108 17.9612L24.5499 17.7988L24.5948 17.8632L25.3884 18.9987L26.5373 20.6432Z" fill="white"/>
<path d="M16.2028 19.2637L12.343 21.4921V19.1491L16.2028 16.9207L16.8604 17.7126L16.2028 19.2637ZM18.7093 15.4738L17.3926 13.8926L10 18.1608V28.6991L12.343 29.844V23.8336L17.3926 20.9184L18.7093 17.8164L19.3688 16.2645L18.7093 15.4738Z" fill="white"/>
</svg>
