<svg width="40" height="40" viewBox="0 0 40 40" fill="none" xmlns="http://www.w3.org/2000/svg">
<rect width="40" height="40" rx="20" fill="#28499C"/>
<path d="M24.1482 18.6472L24.5768 18.8657L24.3623 19.12L24.04 19.5031L24.3623 20.2146L25.0073 20.5431L25.1035 20.4291L25.2652 20.237L25.3177 20.1745L25.7463 20.3929L25.5322 20.6476L25.2218 21.0159L24.1482 20.4689L23.6113 19.2846L24.1482 18.6472Z" fill="#28499C"/>
<path d="M24.9692 19.5828L26.0186 20.1175L26.0334 20.15L26.2476 20.6228L26.5554 21.3018L26.0186 21.9392L24.9449 21.3923L24.666 20.7773L25.0947 20.9954L25.1591 21.1379L25.8041 21.4664L26.1267 21.0833L26.0334 20.8775L25.8189 20.4047L25.8041 20.3718L25.1833 20.0556L24.9692 19.5828Z" fill="#28499C"/>
<path d="M24.9441 18.5264L26.0177 19.0734L26.5545 20.2577L26.2702 20.5952L26.0561 20.1224L26.1259 20.0396L25.8032 19.328L25.1582 18.9992L25.0623 19.1132L24.8627 19.3505L24.8478 19.3678L24.8359 19.3823L24.9292 19.5881L25.1434 20.0609L25.1582 20.0938L25.2649 20.1481L25.2385 20.1792L25.0508 20.4024L24.9441 20.3481L24.9292 20.3156L24.7151 19.8428L24.4072 19.1638L24.4195 19.1493L24.6337 18.895L24.9441 18.5264Z" fill="#28499C"/>
<path d="M23.913 21.2463C24.3145 21.8523 24.3145 22.503 23.913 22.7002C23.5122 22.8973 22.8614 22.5656 22.4591 21.9593C22.3159 21.743 22.2243 21.5216 22.1827 21.3165C22.1813 21.3057 22.1799 21.2952 22.1773 21.2843C22.0905 20.8188 21.8832 20.312 21.5558 19.8175C21.2285 19.3233 20.828 18.9131 20.4066 18.6107L20.4041 18.6092C20.3954 18.6027 20.386 18.5962 20.3762 18.5897C20.3245 18.5514 20.2735 18.5094 20.2243 18.4642C20.217 18.4584 20.2098 18.4515 20.2026 18.4446C20.1805 18.4237 20.1581 18.402 20.1356 18.3795C20.1302 18.3741 20.1244 18.3683 20.119 18.3629C20.0926 18.335 20.0666 18.3057 20.0409 18.2761C20.0354 18.2703 20.0307 18.2645 20.0257 18.2591C20.0051 18.2341 19.9844 18.2084 19.9645 18.1824C19.958 18.1733 19.9519 18.1654 19.9454 18.1574C19.9215 18.1252 19.8976 18.0916 19.8745 18.0576C19.6744 17.7548 19.5742 17.4408 19.5742 17.1771C19.5742 16.9145 19.6744 16.7029 19.8745 16.6037C19.8976 16.5925 19.9222 16.5835 19.9468 16.5755C19.9519 16.5741 19.9566 16.573 19.9613 16.5715C19.9837 16.5647 20.0069 16.5596 20.0297 16.5563C20.0329 16.5556 20.0354 16.5545 20.0387 16.5545C20.0658 16.5506 20.0926 16.5484 20.1205 16.5477C20.1244 16.548 20.1277 16.548 20.1309 16.548C20.1555 16.548 20.1805 16.5488 20.2058 16.5513C20.2112 16.5516 20.2163 16.5516 20.2217 16.5531C20.272 16.5585 20.3238 16.5683 20.3762 16.5831C20.3867 16.5867 20.3961 16.59 20.4059 16.5925C20.4066 16.5929 20.4073 16.5932 20.408 16.5929C20.8287 16.7195 21.2296 16.7166 21.5558 16.5574C21.8832 16.3968 22.0898 16.1006 22.1773 15.7229C22.1799 15.7153 22.1813 15.7059 22.1827 15.6972C22.2243 15.5341 22.3159 15.4064 22.4591 15.3362C22.8607 15.139 23.5122 15.4711 23.9137 16.077C24.3145 16.6826 24.3145 17.3334 23.913 17.5305C23.7697 17.6007 23.595 17.6036 23.4112 17.5511C23.4015 17.5479 23.3921 17.5446 23.3826 17.5421C23.3816 17.5417 23.3808 17.5414 23.3808 17.5421C22.9587 17.4148 22.559 17.418 22.2323 17.5783C22.1129 17.6362 22.0102 17.7118 21.923 17.804C21.9111 17.8159 21.9002 17.8279 21.8897 17.8409C21.7042 18.0652 21.7042 18.4609 21.8897 18.874C21.9002 18.8976 21.9122 18.9221 21.923 18.9453C22.0102 19.1258 22.1129 19.3063 22.2323 19.4857C22.5597 19.9802 22.9601 20.3912 23.3826 20.6932C23.3921 20.7005 23.4015 20.7077 23.4112 20.7142C23.595 20.8495 23.7697 21.03 23.913 21.2463Z" fill="white"/>
<path d="M25.205 18.3528L24.3018 17.8926V17.8156L25.205 18.2761V18.3528Z" fill="#28499C"/>
<path d="M25.6905 18.4089L24.4414 17.7726V17.6959L25.6905 18.3322V18.4089Z" fill="#28499C"/>
<path d="M25.4185 18.4614L25.2764 18.3891V18.3124L25.4185 18.3847V18.4614Z" fill="#28499C"/>
<path d="M25.8301 18.2891L24.3018 17.5102V17.4335L25.8301 18.2124V18.2891Z" fill="#28499C"/>
<path d="M26.3321 18.7363L25.7461 18.4375V18.3608L26.3321 18.6596V18.7363Z" fill="#28499C"/>
<path d="M26.6679 22.8447L25.7646 22.3846V22.3075L26.6679 22.768V22.8447Z" fill="#28499C"/>
<path d="M27.1534 22.9009L25.9043 22.2646V22.1879L27.1534 22.8242V22.9009Z" fill="#28499C"/>
<path d="M26.8814 22.9534L26.7393 22.881V22.8043L26.8814 22.8767V22.9534Z" fill="#28499C"/>
<path d="M27.6098 23.1338L27.209 22.9294V22.8527L27.6098 23.0571V23.1338Z" fill="#28499C"/>
<path d="M28.0369 12.0013V15.334V25.3366L19.1467 30.3355L10.2568 25.3366V28.6711L19.1467 33.6704L30.9995 27.0028V13.6675L28.0369 12.0013Z" fill="white"/>
<path d="M19.1475 7.00015V10.3351L28.0377 15.334V12.0012L19.1475 7.00015Z" fill="#E0E0E0"/>
<path d="M16.2028 19.2637L12.343 21.4921V19.1491L16.2028 16.9207L16.8605 17.7126L16.2028 19.2637ZM18.7093 15.4738L17.3926 13.8926L10 18.1608V28.6991L12.343 29.844V23.8336L17.3926 20.9183L18.7093 17.8168L19.3688 16.2645L18.7093 15.4738Z" fill="white"/>
</svg>
