<svg width="122" height="110" viewBox="0 0 122 110" fill="none" xmlns="http://www.w3.org/2000/svg">
<path d="M69.0469 41.5436H75.5175L72.2829 47.0329L67.4135 55.2956L72.2829 63.5569H82.0202L83.4695 61.0956L85.9122 56.9503L86.7055 55.6063H93.1762L89.9415 61.0956L85.2549 69.0463H69.0469L60.9429 55.2956L69.0469 41.5436Z" fill="#28499C"/>
<path d="M81.4384 49.3576H97.2811L97.5038 49.7362L100.738 55.2269L105.384 63.1096L97.2811 76.8602H81.0718L76.8638 69.7202H83.3344L84.3078 71.3709H94.0451L98.9131 63.1096L97.5038 60.7162L94.2691 55.2269L94.0451 54.8469H84.6731L81.4384 49.3576Z" fill="#28499C"/>
<path d="M81.0718 33.5927H97.2798L105.384 47.3447L101.093 54.6247L97.8571 49.134L98.9131 47.3447L94.0451 39.082H84.3078L82.8571 41.5433L79.8451 46.6553L79.6211 47.034L79.4384 47.3447L80.8478 49.7367L84.0838 55.2273L84.3078 55.606H85.9171L85.5184 56.282L82.6811 61.0953H81.0718L80.8478 60.7167L77.6144 55.2273L72.9678 47.3447L73.1504 47.034L76.3864 41.5433L81.0718 33.5927Z" fill="#28499C"/>
<path d="M65.5027 82.5913C71.564 88.6527 71.564 98.4767 65.5027 104.538C59.4533 110.599 49.6293 110.599 43.556 104.538C41.392 102.373 40.008 99.7393 39.384 96.962C39.3587 96.806 39.3347 96.6607 39.2987 96.5167C37.988 90.1553 34.8613 84.094 29.92 79.1527C24.9773 74.21 18.928 71.0953 12.5667 69.7727H12.5307C12.3987 69.7367 12.2533 69.7127 12.1093 69.6887C11.328 69.5073 10.5587 69.2673 9.81333 68.966C9.704 68.93 9.596 68.882 9.488 68.834C9.152 68.69 8.81466 68.534 8.47733 68.3647C8.39333 68.3287 8.30933 68.2807 8.22533 68.2447C7.828 68.0287 7.432 67.7873 7.04667 67.5353C6.96267 67.4873 6.89066 67.4393 6.81866 67.3913C6.50533 67.174 6.19333 66.946 5.892 66.706C5.796 66.622 5.7 66.55 5.604 66.4767C5.24267 66.1767 4.88266 65.8513 4.53333 65.5153C1.51466 62.4847 0 58.5167 0 54.5353C0 50.5673 1.51466 46.5993 4.53333 43.5687C4.88266 43.2193 5.25467 42.8953 5.628 42.582C5.7 42.522 5.772 42.474 5.844 42.414C6.18133 42.138 6.52933 41.8847 6.87867 41.6567C6.92667 41.6207 6.96267 41.5847 7.01067 41.5607C7.42 41.2953 7.828 41.0553 8.24933 40.8273C8.30933 40.8033 8.35733 40.7793 8.40533 40.7553C8.77866 40.562 9.152 40.382 9.536 40.226C9.62 40.19 9.692 40.154 9.77733 40.13C10.5347 39.8287 11.316 39.5767 12.1093 39.3953C12.2653 39.3713 12.4107 39.3473 12.5547 39.3113C12.5667 39.3113 12.5787 39.3113 12.5907 39.2993C18.94 37.9767 24.9893 34.85 29.92 29.9313C34.8613 24.99 37.976 18.9287 39.2987 12.5553C39.3347 12.4233 39.3587 12.266 39.384 12.122C40.008 9.34466 41.392 6.71 43.556 4.546C49.6173 -1.51534 59.4533 -1.51534 65.5147 4.546C71.564 10.6073 71.564 20.4313 65.5027 26.4927C63.3387 28.6567 60.704 30.0407 57.9267 30.666C57.7827 30.69 57.6387 30.714 57.4933 30.75C57.4813 30.75 57.4693 30.75 57.4693 30.762C51.096 32.0847 45.06 35.2113 40.1293 40.142C38.3253 41.9327 36.7733 43.8687 35.4627 45.926C35.2827 46.202 35.1147 46.4673 34.9587 46.7433C32.156 51.554 32.156 57.53 34.9587 62.3407C35.1147 62.6167 35.2947 62.894 35.4627 63.158C36.7733 65.214 38.3253 67.15 40.1293 68.942C45.072 73.8847 51.12 77.0113 57.4933 78.322C57.6387 78.358 57.7827 78.394 57.9267 78.418C60.704 79.0433 63.3387 80.4273 65.5027 82.5913Z" fill="#28499C"/>
<path d="M85.0046 28.9678H71.366V27.8078H85.0046V28.9678Z" fill="#28499C"/>
<path d="M92.3313 26.0837H73.4753V24.9237H92.3313V26.0837Z" fill="#28499C"/>
<path d="M88.2287 28.9678H86.0847V27.8078H88.2287V28.9678Z" fill="#28499C"/>
<path d="M94.4393 23.1997H71.366V22.0397H94.4393V23.1997Z" fill="#28499C"/>
<path d="M102.026 26.0837H93.1766V24.9237H102.026V26.0837Z" fill="#28499C"/>
<path d="M107.093 85.5291H93.454V84.3691H107.093V85.5291Z" fill="#28499C"/>
<path d="M114.418 82.6451H95.562V81.4851H114.418V82.6451Z" fill="#28499C"/>
<path d="M110.315 85.5291H108.171V84.3691H110.315V85.5291Z" fill="#28499C"/>
<path d="M121.315 82.6451H115.263V81.4851H121.315V82.6451Z" fill="#28499C"/>
</svg>
