<svg width="40" height="40" viewBox="0 0 40 40" fill="none" xmlns="http://www.w3.org/2000/svg">
<rect x="0.5" y="0.5" width="39" height="39" rx="19.5" fill="white"/>
<path fill-rule="evenodd" clip-rule="evenodd" d="M16.2627 13.3616L16.3221 13.4165L19.3288 16.3259C19.6057 16.6003 19.6057 17.0395 19.3288 17.314C19.0518 17.5884 18.5969 17.5884 18.3199 17.314L16.4803 15.5391V27.3413C16.4803 27.7072 16.1638 28 15.7682 28C15.3726 28 15.0561 27.7072 15.0561 27.3413V15.5391L13.2165 17.314C12.9396 17.5884 12.4846 17.5884 12.2077 17.314C11.9308 17.0395 11.9308 16.6003 12.2077 16.3259L15.2539 13.3616C15.3924 13.2335 15.5704 13.1603 15.7682 13.1603C15.966 13.1603 16.1441 13.2335 16.2627 13.3616ZM26.7859 23.8282C27.0628 23.5537 27.5178 23.5537 27.7947 23.8282C28.0717 24.1027 28.0717 24.5418 27.7749 24.8163L24.7287 27.7806C24.5902 27.9087 24.4122 27.9819 24.2144 27.9819C24.0166 27.9819 23.8386 27.9087 23.7199 27.7806L23.6803 27.744L23.6606 27.7257L20.6737 24.8163C20.3967 24.5418 20.3967 24.1027 20.6737 23.8282C20.9506 23.5537 21.4056 23.5537 21.6825 23.8282L23.5221 25.6031V13.8009C23.5221 13.435 23.8386 13.1422 24.2342 13.1422C24.6298 13.1422 24.9463 13.435 24.9463 13.8009V25.6031L26.7859 23.8282Z" fill="#838799"/>
<rect x="0.5" y="0.5" width="39" height="39" rx="19.5" stroke="#DCDEE6"/>
</svg>
