<svg width="23" height="28" viewBox="0 0 23 28" fill="none" xmlns="http://www.w3.org/2000/svg">
<path d="M6.17804 8.84844C7.66692 7.95621 8.54127 6.11539 8.99495 4.49316L8.38868 4.73924C10.4316 6.2185 13.7544 7.67851 15.9705 5.70021H15.3876C15.9403 6.35185 16.4105 7.1176 16.6854 7.92734C16.8545 8.42776 17.6519 8.21329 17.4814 7.70738C17.1583 6.75603 16.6208 5.88168 15.9719 5.11731C15.8221 4.94134 15.5444 4.97845 15.389 5.11731C13.4905 6.8124 10.5031 5.25616 8.80661 4.02711C8.58664 3.86764 8.26632 4.03811 8.20033 4.2732C7.80577 5.68234 7.05927 7.35681 5.76149 8.13493C5.30644 8.40713 5.72162 9.12064 6.17804 8.84706V8.84844Z" fill="#0335B4"/>
<path d="M5.69814 8.85806C5.15373 9.28974 4.99151 9.99225 5.24447 10.6315C5.3847 10.9848 5.65415 11.2694 5.804 11.6104C5.96897 11.9815 6.02122 12.4338 6.17519 12.8215C6.74022 14.2375 7.75343 15.5051 9.12957 16.2007C12.0702 17.6855 15.3587 16.0481 16.6633 13.19C16.8585 12.7624 16.996 12.3225 17.1225 11.8716C17.2366 11.4701 17.4978 11.1526 17.6875 10.7717C18.034 10.0789 17.8388 9.30624 16.9726 9.24162L17.3851 9.65406C17.7398 6.34635 17.4799 1.09335 13.4739 0.164007C11.9245 -0.194808 10.2074 0.0746468 8.72127 0.590186C7.85379 0.891261 7.39736 1.35456 6.87357 2.07219C6.47764 2.6166 6.01297 3.10877 5.70227 3.71092C4.82654 5.40601 5.27884 7.47779 5.61978 9.25262C5.72014 9.77366 6.51476 9.55232 6.41577 9.03266C6.13945 7.59465 5.71602 5.83769 6.2838 4.41205C6.47489 3.93226 6.78834 3.50608 7.10591 3.10327C7.49085 2.6166 7.82629 1.97321 8.36245 1.64464C9.51176 0.938003 11.321 0.733162 12.6297 0.858267C14.5613 1.04249 15.7065 2.34989 16.2138 4.1481C16.7211 5.9463 16.7554 7.82423 16.5602 9.65268C16.5355 9.88639 16.7706 10.05 16.9726 10.0651C17.1747 10.0802 16.5396 11.0879 16.4997 11.1608C16.3664 11.4069 16.3279 11.6736 16.2495 11.9431C16.0199 12.7377 15.6391 13.4965 15.114 14.1372C14.1585 15.3016 12.7452 16.0316 11.222 15.9409C9.69873 15.8502 8.32121 14.8919 7.50047 13.6148C7.27638 13.2656 7.08254 12.8944 6.93269 12.5081C6.78284 12.1218 6.74984 11.7135 6.59862 11.3533C6.33466 10.7181 5.4988 10.0582 6.2783 9.43959C6.69348 9.10965 6.10645 8.52949 5.69539 8.85669L5.69814 8.85806Z" fill="#0335B4"/>
<path d="M15.1871 17.6112C16.8891 19.7504 20.4154 18.4595 21.7173 21.132C22.2026 22.1274 22.0885 23.4966 22.1476 24.5827C22.1861 25.3031 22.1751 26.0221 22.1751 26.7438L22.5875 26.3314H0.412465L0.824897 26.7438C0.824897 26.0235 0.812524 25.3031 0.852392 24.5827C0.911508 23.4953 0.796027 22.1287 1.2827 21.132C2.58598 18.4581 6.10952 19.7504 7.81286 17.6112H7.22996C8.56349 18.9901 9.89839 20.3677 11.2319 21.7465C11.3845 21.9046 11.6622 21.906 11.8148 21.7465C13.1332 20.3677 14.453 18.9901 15.7714 17.6112C16.1385 17.2277 15.5556 16.6434 15.1885 17.0283C13.8701 18.4072 12.5503 19.7847 11.2319 21.1636H11.8148C10.4813 19.7847 9.14639 18.4072 7.81286 17.0283C7.67126 16.8812 7.36744 16.8551 7.22996 17.0283C6.3611 18.1199 4.8901 18.2148 3.61293 18.5007C2.25603 18.8045 1.0806 19.5758 0.493577 20.8818C0.0220303 21.9321 0.101767 23.2162 0.0412771 24.3476C-0.0027156 25.1464 3.39449e-05 25.9424 3.39449e-05 26.7438C3.39449e-05 26.9666 0.188378 27.1563 0.412465 27.1563H22.5875C22.8102 27.1563 23 26.9679 23 26.7438C23 25.9424 23.0027 25.1464 22.9601 24.3476C22.8982 23.2148 22.9793 21.9335 22.5078 20.8818C21.9221 19.5758 20.7453 18.8045 19.3884 18.5007C18.1127 18.2148 16.6389 18.1185 15.7714 17.0283C15.4415 16.6132 14.8613 17.2002 15.1885 17.6112H15.1871Z" fill="#0335B4"/>
<path d="M5.48574 26.7439C5.5751 25.6853 5.66446 24.6267 5.75382 23.5681C5.79781 23.0389 4.97295 23.0416 4.92896 23.5681C4.8396 24.6267 4.75024 25.6853 4.66088 26.7439C4.61689 27.2732 5.44175 27.2704 5.48574 26.7439Z" fill="#0335B4"/>
<path d="M18.3398 26.7438C18.2504 25.6853 18.161 24.6267 18.0717 23.5681C18.0277 23.043 17.2028 23.0388 17.2468 23.5681C17.3362 24.6267 17.4255 25.6853 17.5149 26.7438C17.5589 27.269 18.3838 27.2731 18.3398 26.7438Z" fill="#0335B4"/>
<path d="M11.1099 21.4537V26.7438C11.1099 27.2745 11.9347 27.2759 11.9347 26.7438V21.4537C11.9347 20.9231 11.1099 20.9217 11.1099 21.4537Z" fill="#0335B4"/>
<path d="M8.81371 15.5477C8.4439 16.2543 8.07409 16.9623 7.70427 17.669C7.45819 18.1391 8.17032 18.5557 8.4164 18.0855C8.78622 17.3789 9.15603 16.6709 9.52585 15.9642C9.77193 15.4941 9.0598 15.0775 8.81371 15.5477Z" fill="#0335B4"/>
<path d="M13.5197 15.9642C13.8895 16.6709 14.2593 17.3789 14.6291 18.0855C14.8752 18.5557 15.5874 18.1391 15.3413 17.669C14.9715 16.9623 14.6016 16.2543 14.2318 15.5477C13.9858 15.0775 13.2736 15.4941 13.5197 15.9642Z" fill="#0335B4"/>
</svg>
