<svg width="29" height="29" viewBox="0 0 29 29" fill="none" xmlns="http://www.w3.org/2000/svg">
<path d="M22.6005 23.9811C22.6138 23.2279 22.4805 21.2015 22.3105 18.9751C23.2771 18.2752 24.7236 17.222 25.1735 16.8487C25.5434 16.5388 25.5668 15.9822 25.2268 15.6389L23.9637 14.3757C23.6204 14.0324 23.0638 14.0558 22.7538 14.429C22.5805 14.639 22.3105 14.9856 22.0206 15.3689L21.6673 11.1728C22.9305 9.87965 24.1503 8.49983 25.2901 6.9967C27.5365 4.03709 27.7098 2.07068 27.6598 1.32411C27.6465 1.15413 27.5099 1.01748 27.3432 1.00749C26.5966 0.954159 24.6302 1.1308 21.6706 3.37717C20.1675 4.51702 18.7877 5.73353 17.4945 7.00003L13.2984 6.64674C13.6817 6.35678 14.0316 6.09015 14.2383 5.9135C14.6082 5.60355 14.6316 5.04695 14.2916 4.70366L13.0284 3.4405C12.6851 3.09721 12.1286 3.12054 11.8186 3.49382C11.4453 3.94376 10.3921 5.38691 9.69221 6.35678C7.46583 6.1868 5.43943 6.05015 4.6862 6.06682C4.30625 6.07348 3.9363 6.1768 3.66633 6.44677L2.56315 7.54996C2.46983 7.64328 2.51315 7.79992 2.64314 7.82992C3.93963 8.12988 12.4285 10.7062 13.5117 11.2761C9.59222 16.0022 8.42571 17.642 7.32252 19.1484C5.4061 19.0184 3.54635 18.9585 2.78645 18.9385C2.55648 18.9318 2.33651 19.0218 2.17653 19.1818L1.86991 19.4884C1.76992 19.5884 1.78992 19.755 1.91323 19.8183C2.80645 20.2849 4.55955 21.1582 5.58608 21.6781L4.06295 24.0711C3.95296 24.2211 3.96963 24.4311 4.09961 24.561L4.10628 24.5677C4.23959 24.701 4.44623 24.7144 4.59621 24.6044L6.98923 23.0812C7.50916 24.1078 8.38238 25.8642 8.84898 26.7541C8.91231 26.8774 9.08229 26.8974 9.17894 26.8007L9.48557 26.4941C9.64555 26.3308 9.73553 26.1108 9.72887 25.8842C9.70887 25.1243 9.64888 23.2645 9.5189 21.3481C11.0254 20.2449 12.6651 19.0751 17.3912 15.159C17.9644 16.2388 20.5408 24.7277 20.8407 26.0275C20.8707 26.1542 21.0274 26.2008 21.1207 26.1075L22.2239 25.0043C22.4939 24.7344 22.6305 24.3644 22.6038 23.9845L22.6005 23.9811Z" stroke="#0335B4" stroke-linecap="round" stroke-linejoin="round"/>
<path d="M13.8115 9.4997L10.752 8.52316" stroke="#0335B4" stroke-linecap="round" stroke-linejoin="round"/>
<path d="M7.34604 12.4393L5.36963 14.4191" stroke="#0335B4" stroke-linecap="round" stroke-linejoin="round"/>
<path d="M4.39955 11.4994L1 14.9023" stroke="#0335B4" stroke-linecap="round" stroke-linejoin="round"/>
<path d="M16.2214 21.3148L14.2417 23.2912" stroke="#0335B4" stroke-linecap="round" stroke-linejoin="round"/>
<path d="M17.1612 24.2611L13.7583 27.6606" stroke="#0335B4" stroke-linecap="round" stroke-linejoin="round"/>
<path d="M20.1343 17.7386L19.1577 14.679" stroke="#0335B4" stroke-linecap="round" stroke-linejoin="round"/>
</svg>
